<?xml version="1.0" encoding="UTF-8"?>
<!DOCTYPE svg PUBLIC "-//W3C//DTD SVG 1.1//EN" "http://www.w3.org/Graphics/SVG/1.1/DTD/svg11.dtd">
<svg xmlns="http://www.w3.org/2000/svg" version="1.1" width="1024px" height="1024px" style="shape-rendering:geometricPrecision; text-rendering:geometricPrecision; image-rendering:optimizeQuality; fill-rule:evenodd; clip-rule:evenodd" xmlns:xlink="http://www.w3.org/1999/xlink">
<g><path style="opacity:1" fill="#f8f8f8" d="M -0.5,-0.5 C 340.833,-0.5 682.167,-0.5 1023.5,-0.5C 1023.5,340.833 1023.5,682.167 1023.5,1023.5C 682.167,1023.5 340.833,1023.5 -0.5,1023.5C -0.5,682.167 -0.5,340.833 -0.5,-0.5 Z"/></g>
<g><path style="opacity:1" fill="#0d2944" d="M 370.5,325.5 C 374.5,327.772 378.833,329.605 383.5,331C 387.194,333.687 389.694,337.187 391,341.5C 391.167,410.335 391.667,479.001 392.5,547.5C 387.435,582.223 373.602,612.89 351,639.5C 333.315,658.195 314.149,675.028 293.5,690C 272.167,705.333 250.833,720.667 229.5,736C 222.167,739.333 214.833,739.333 207.5,736C 172.789,711.977 138.789,686.977 105.5,661C 82.5778,641.429 65.0778,617.929 53,590.5C 46.111,573.505 42.111,555.839 41,537.5C 41.2088,471.838 41.5421,406.172 42,340.5C 44.1055,336.396 46.9389,332.896 50.5,330C 101.917,313.645 153.25,296.978 204.5,280C 214.282,276.509 223.949,276.842 233.5,281C 279.333,295.7 325,310.533 370.5,325.5 Z"/></g>
<g><path style="opacity:1" fill="#f7f8f8" d="M 68.5,507.5 C 68.5,498.167 68.5,488.833 68.5,479.5C 68.5,437.167 68.5,394.833 68.5,352.5C 111.948,338.972 155.281,325.139 198.5,311C 204.956,308.57 211.623,307.07 218.5,306.5C 267.463,321.711 316.463,336.711 365.5,351.5C 365.479,414.839 365.645,478.172 366,541.5C 360.884,575.063 346.717,604.063 323.5,628.5C 318.015,633.485 312.681,638.652 307.5,644C 278.875,666.312 249.542,687.645 219.5,708C 183.572,686.333 149.572,661.666 117.5,634C 91.4247,609.578 75.2581,579.744 69,544.5C 68.5001,532.171 68.3335,519.838 68.5,507.5 Z"/></g>
<g><path style="opacity:1" fill="#000214" d="M 777.5,355.5 C 776.504,341.343 776.171,327.01 776.5,312.5C 768.167,312.5 759.833,312.5 751.5,312.5C 751.829,327.343 751.496,342.01 750.5,356.5C 750.5,349.833 750.5,343.167 750.5,336.5C 750.5,328.167 750.5,319.833 750.5,311.5C 759.5,311.5 768.5,311.5 777.5,311.5C 777.5,326.167 777.5,340.833 777.5,355.5 Z"/></g>
<g><path style="opacity:1" fill="#1f2530" d="M 934.5,343.5 C 933.5,338.932 933.167,333.599 933.5,327.5C 892.833,327.5 852.167,327.5 811.5,327.5C 811.5,335.833 811.5,344.167 811.5,352.5C 813.099,352.232 814.432,352.566 815.5,353.5C 813.833,353.5 812.167,353.5 810.5,353.5C 810.5,344.167 810.5,334.833 810.5,325.5C 851.833,325.5 893.167,325.5 934.5,325.5C 934.5,331.5 934.5,337.5 934.5,343.5 Z"/></g>
<g><path style="opacity:1" fill="#000210" d="M 503.5,330.5 C 525.5,330.5 547.5,330.5 569.5,330.5C 569.5,338.167 569.5,345.833 569.5,353.5C 558.5,353.5 547.5,353.5 536.5,353.5C 546.987,352.506 557.654,352.172 568.5,352.5C 568.5,345.5 568.5,338.5 568.5,331.5C 546.66,331.831 524.994,331.497 503.5,330.5 Z"/></g>
<g><path style="opacity:1" fill="#000112" d="M 634.5,329.5 C 649.5,329.5 664.5,329.5 679.5,329.5C 679.5,350.5 679.5,371.5 679.5,392.5C 678.503,372.007 678.169,351.34 678.5,330.5C 663.657,330.829 648.99,330.496 634.5,329.5 Z"/></g>
<g><path style="opacity:1" fill="#677a8b" d="M 750.5,336.5 C 750.5,343.167 750.5,349.833 750.5,356.5C 750.167,356.5 749.833,356.5 749.5,356.5C 739.5,356.5 729.5,356.5 719.5,356.5C 729.319,355.506 739.319,355.173 749.5,355.5C 749.177,348.978 749.51,342.645 750.5,336.5 Z"/></g>
<g><path style="opacity:1" fill="#00000f" d="M 719.5,356.5 C 729.5,356.5 739.5,356.5 749.5,356.5C 740.014,357.494 730.348,357.827 720.5,357.5C 720.5,366.167 720.5,374.833 720.5,383.5C 719.507,374.682 719.173,365.682 719.5,356.5 Z"/></g>
<g><path style="opacity:1" fill="#1b2537" d="M 370.5,325.5 C 382.345,326.187 389.845,332.187 393,343.5C 393.82,411.522 393.653,479.522 392.5,547.5C 391.667,479.001 391.167,410.335 391,341.5C 389.694,337.187 387.194,333.687 383.5,331C 378.833,329.605 374.5,327.772 370.5,325.5 Z"/></g>
<g><path style="opacity:1" fill="#010417" d="M 806.5,356.5 C 806.827,365.682 806.493,374.682 805.5,383.5C 796.342,382.67 787.009,382.17 777.5,382C 786.827,381.5 796.161,381.334 805.5,381.5C 805.5,373.5 805.5,365.5 805.5,357.5C 796.161,357.666 786.827,357.5 777.5,357C 787.161,356.5 796.828,356.334 806.5,356.5 Z"/></g>
<g><path style="opacity:1" fill="#0d2944" d="M 777.5,355.5 C 787.348,355.173 797.014,355.506 806.5,356.5C 796.828,356.334 787.161,356.5 777.5,357C 786.827,357.5 796.161,357.666 805.5,357.5C 805.5,365.5 805.5,373.5 805.5,381.5C 796.161,381.334 786.827,381.5 777.5,382C 787.009,382.17 796.342,382.67 805.5,383.5C 796.167,383.5 786.833,383.5 777.5,383.5C 777.5,389.833 777.5,396.167 777.5,402.5C 782.575,402.593 787.575,403.259 792.5,404.5C 798.637,418.795 806.971,431.629 817.5,443C 809.99,449.344 802.99,456.177 796.5,463.5C 790.061,454.95 784.395,445.95 779.5,436.5C 779.44,435.957 779.107,435.624 778.5,435.5C 777.5,470.827 777.167,506.16 777.5,541.5C 777.5,542.167 777.5,542.833 777.5,543.5C 769.101,545.425 760.434,546.092 751.5,545.5C 751.832,511.996 751.498,478.662 750.5,445.5C 750.631,444.761 750.464,444.094 750,443.5C 743.214,459.739 735.881,475.739 728,491.5C 719.732,484.27 712.899,475.936 707.5,466.5C 726.973,441.885 740.306,414.218 747.5,383.5C 738.5,383.5 729.5,383.5 720.5,383.5C 720.5,374.833 720.5,366.167 720.5,357.5C 730.348,357.827 740.014,357.494 749.5,356.5C 749.833,356.5 750.167,356.5 750.5,356.5C 751.496,342.01 751.829,327.343 751.5,312.5C 759.833,312.5 768.167,312.5 776.5,312.5C 776.171,327.01 776.504,341.343 777.5,355.5 Z"/></g>
<g><path style="opacity:1" fill="#000214" d="M 535.5,370.5 C 548.833,370.5 562.167,370.5 575.5,370.5C 575.5,373.5 575.5,376.5 575.5,379.5C 575.5,384.167 575.5,388.833 575.5,393.5C 563.167,393.5 550.833,393.5 538.5,393.5C 538.167,393.5 537.833,393.5 537.5,393.5C 549.655,392.505 561.989,392.171 574.5,392.5C 574.5,385.5 574.5,378.5 574.5,371.5C 561.323,371.829 548.323,371.495 535.5,370.5 Z"/></g>
<g><path style="opacity:1" fill="#5c6e7f" d="M 575.5,379.5 C 576.487,384.305 576.821,389.305 576.5,394.5C 563.656,394.829 550.989,394.495 538.5,393.5C 550.833,393.5 563.167,393.5 575.5,393.5C 575.5,388.833 575.5,384.167 575.5,379.5 Z"/></g>
<g><path style="opacity:1" fill="#0d2944" d="M 634.5,329.5 C 648.99,330.496 663.657,330.829 678.5,330.5C 678.169,351.34 678.503,372.007 679.5,392.5C 679.5,403.167 679.5,413.833 679.5,424.5C 649.5,424.5 619.5,424.5 589.5,424.5C 589.5,392.833 589.5,361.167 589.5,329.5C 604.5,329.5 619.5,329.5 634.5,329.5 Z"/></g>
<g><path style="opacity:1" fill="#f5f6f6" d="M 614.5,353.5 C 627.833,353.5 641.167,353.5 654.5,353.5C 654.5,369.833 654.5,386.167 654.5,402.5C 641.167,402.5 627.833,402.5 614.5,402.5C 614.5,386.167 614.5,369.833 614.5,353.5 Z"/></g>
<g><path style="opacity:1" fill="#010f2c" d="M 68.5,479.5 C 68.5,488.833 68.5,498.167 68.5,507.5C 67.67,516.991 67.17,526.658 67,536.5C 66.3333,475.167 66.3333,413.833 67,352.5C 67.1673,395.002 67.6673,437.335 68.5,479.5 Z"/></g>
<g><path style="opacity:1" fill="#1a2436" d="M 679.5,329.5 C 664.5,329.5 649.5,329.5 634.5,329.5C 619.5,329.5 604.5,329.5 589.5,329.5C 589.5,361.167 589.5,392.833 589.5,424.5C 619.5,424.5 649.5,424.5 679.5,424.5C 679.5,413.833 679.5,403.167 679.5,392.5C 680.495,403.321 680.828,414.321 680.5,425.5C 649.5,425.5 618.5,425.5 587.5,425.5C 587.5,393.167 587.5,360.833 587.5,328.5C 618.338,328.169 649.005,328.502 679.5,329.5 Z"/></g>
<g><path style="opacity:1" fill="#0d2844" d="M 934.5,343.5 C 932.5,390.334 918.166,433.167 891.5,472C 907.872,489.316 925.872,504.483 945.5,517.5C 938.856,525.979 932.022,534.312 925,542.5C 905.82,529.158 888.32,513.824 872.5,496.5C 853.536,514.47 832.87,530.137 810.5,543.5C 804.103,535.719 797.936,527.719 792,519.5C 791.409,518.517 791.743,517.85 793,517.5C 815.934,505.447 836.434,490.113 854.5,471.5C 833.102,434.972 820.102,395.639 815.5,353.5C 814.432,352.566 813.099,352.232 811.5,352.5C 811.5,344.167 811.5,335.833 811.5,327.5C 852.167,327.5 892.833,327.5 933.5,327.5C 933.167,333.599 933.5,338.932 934.5,343.5 Z"/></g>
<g><path style="opacity:1" fill="#f5f6f6" d="M 846.5,353.5 C 865.167,353.5 883.833,353.5 902.5,353.5C 899.103,379.756 892.269,405.089 882,429.5C 879.417,434.336 876.583,439.003 873.5,443.5C 866.128,431.745 860.628,419.078 857,405.5C 851.513,388.564 848.013,371.231 846.5,353.5 Z"/></g>
<g><path style="opacity:1" fill="#0d2944" d="M 503.5,330.5 C 524.994,331.497 546.66,331.831 568.5,331.5C 568.5,338.5 568.5,345.5 568.5,352.5C 557.654,352.172 546.987,352.506 536.5,353.5C 536.801,358.965 536.467,364.632 535.5,370.5C 548.323,371.495 561.323,371.829 574.5,371.5C 574.5,378.5 574.5,385.5 574.5,392.5C 561.989,392.171 549.655,392.505 537.5,393.5C 537.369,394.376 537.702,395.043 538.5,395.5C 550.254,402.459 561.754,409.792 573,417.5C 573.667,418.5 573.667,419.5 573,420.5C 568.642,426.556 564.808,432.89 561.5,439.5C 593.329,440.498 625.329,440.832 657.5,440.5C 657.5,475.5 657.5,510.5 657.5,545.5C 648.167,545.5 638.833,545.5 629.5,545.5C 629.795,543.265 629.461,541.265 628.5,539.5C 591.167,538.167 553.833,538.167 516.5,539.5C 515.539,541.265 515.205,543.265 515.5,545.5C 506.5,545.5 497.5,545.5 488.5,545.5C 489.16,511.483 488.493,477.817 486.5,444.5C 482.279,445.581 477.946,447.415 473.5,450C 472.5,450.667 471.5,450.667 470.5,450C 465.309,443.643 460.309,437.143 455.5,430.5C 467.457,424.521 479.124,418.021 490.5,411C 495.97,406.536 500.303,401.203 503.5,395C 488.837,394.5 474.17,394.333 459.5,394.5C 459.5,386.5 459.5,378.5 459.5,370.5C 462.85,370.665 466.183,370.498 469.5,370C 463.877,366.045 458.543,361.712 453.5,357C 468.47,343.891 478.47,327.724 483.5,308.5C 492.308,310.866 500.975,313.533 509.5,316.5C 507.488,321.188 505.488,325.855 503.5,330.5 Z"/></g>
<g><path style="opacity:1" fill="#eef0f1" d="M 521.5,413.5 C 533.879,420.362 545.212,428.695 555.5,438.5C 535.167,439.833 514.833,439.833 494.5,438.5C 505.755,432.577 514.755,424.244 521.5,413.5 Z"/></g>
<g><path style="opacity:1" fill="#f7f7f8" d="M 489.5,353.5 C 496.167,353.5 502.833,353.5 509.5,353.5C 509.553,359.196 509.22,364.862 508.5,370.5C 497.828,370.667 487.161,370.5 476.5,370C 482.177,365.438 486.51,359.938 489.5,353.5 Z"/></g>
<g><path style="opacity:1" fill="#f8f8f8" d="M 516.5,463.5 C 553.502,463.333 590.502,463.5 627.5,464C 628.469,468.737 628.803,473.57 628.5,478.5C 591.5,478.5 554.5,478.5 517.5,478.5C 516.513,473.695 516.179,468.695 516.5,463.5 Z"/></g>
<g><path style="opacity:1" fill="#000925" d="M 516.5,463.5 C 516.179,468.695 516.513,473.695 517.5,478.5C 553.998,479.333 590.664,479.833 627.5,480C 590.5,480.667 553.5,480.667 516.5,480C 515.175,474.401 515.175,468.901 516.5,463.5 Z"/></g>
<g><path style="opacity:1" fill="#6c7e8e" d="M 779.5,436.5 C 778.833,471.5 778.167,506.5 777.5,541.5C 777.167,506.16 777.5,470.827 778.5,435.5C 779.107,435.624 779.44,435.957 779.5,436.5 Z"/></g>
<g><path style="opacity:1" fill="#f4f5f5" d="M 516.5,501.5 C 553.833,501.5 591.167,501.5 628.5,501.5C 628.8,506.099 628.467,510.599 627.5,515C 590.502,515.5 553.502,515.667 516.5,515.5C 516.5,510.833 516.5,506.167 516.5,501.5 Z"/></g>
<g><path style="opacity:1" fill="#051731" d="M 486.5,444.5 C 488.493,477.817 489.16,511.483 488.5,545.5C 497.5,545.5 506.5,545.5 515.5,545.5C 515.205,543.265 515.539,541.265 516.5,539.5C 516.5,541.833 516.5,544.167 516.5,546.5C 506.5,546.5 496.5,546.5 486.5,546.5C 486.5,512.5 486.5,478.5 486.5,444.5 Z"/></g>
<g><path style="opacity:1" fill="#00020f" d="M 750.5,445.5 C 751.498,478.662 751.832,511.996 751.5,545.5C 760.434,546.092 769.101,545.425 777.5,543.5C 777.5,544.5 777.5,545.5 777.5,546.5C 768.5,546.5 759.5,546.5 750.5,546.5C 750.5,512.833 750.5,479.167 750.5,445.5 Z"/></g>
<g><path style="opacity:1" fill="#061127" d="M 561.5,439.5 C 594.167,439.5 626.833,439.5 659.5,439.5C 659.5,475.167 659.5,510.833 659.5,546.5C 649.167,546.5 638.833,546.5 628.5,546.5C 628.5,544.167 628.5,541.833 628.5,539.5C 629.461,541.265 629.795,543.265 629.5,545.5C 638.833,545.5 648.167,545.5 657.5,545.5C 657.5,510.5 657.5,475.5 657.5,440.5C 625.329,440.832 593.329,440.498 561.5,439.5 Z"/></g>
<g><path style="opacity:1" fill="#304b62" d="M 230.5,494.5 C 230.17,515.007 230.503,535.34 231.5,555.5C 231.44,556.043 231.107,556.376 230.5,556.5C 229.172,535.671 229.172,515.004 230.5,494.5 Z"/></g>
<g><path style="opacity:1" fill="#0d2945" d="M 230.5,494.5 C 229.172,515.004 229.172,535.671 230.5,556.5C 231.107,556.376 231.44,556.043 231.5,555.5C 231.232,553.901 231.566,552.568 232.5,551.5C 245.421,550.52 258.421,550.186 271.5,550.5C 273.265,551.461 275.265,551.795 277.5,551.5C 277.5,559.833 277.5,568.167 277.5,576.5C 267.512,575.62 257.512,575.453 247.5,576C 254.346,576.172 261.013,576.672 267.5,577.5C 260.833,577.5 254.167,577.5 247.5,577.5C 246.383,586.2 245.05,594.867 243.5,603.5C 247.167,603.5 250.833,603.5 254.5,603.5C 254.5,603.833 254.5,604.167 254.5,604.5C 261.982,605.492 269.648,605.825 277.5,605.5C 277.5,613.833 277.5,622.167 277.5,630.5C 273.958,630.187 270.625,630.521 267.5,631.5C 255.163,631.266 242.83,630.933 230.5,630.5C 231.128,636.762 230.295,642.762 228,648.5C 222.407,653.717 216.241,654.717 209.5,651.5C 209.938,651.565 210.272,651.399 210.5,651C 207.865,649.039 206.031,646.539 205,643.5C 204.833,593.998 204.333,544.665 203.5,495.5C 175.936,488.438 157.436,471.438 148,444.5C 140.708,403.912 155.875,375.412 193.5,359C 236.555,349.278 267.055,364.444 285,404.5C 293.175,438.988 282.675,466.154 253.5,486C 246.222,489.925 238.556,492.759 230.5,494.5 Z"/></g>
<g><path style="opacity:1" fill="#f7f7f8" d="M 211.5,383.5 C 229.571,382.619 243.737,389.619 254,404.5C 263.526,424.071 260.693,441.571 245.5,457C 228.58,469.722 210.913,470.722 192.5,460C 170.471,439.821 168.804,418.154 187.5,395C 194.523,388.947 202.523,385.113 211.5,383.5 Z"/></g>
<g><path style="opacity:1" fill="#718291" d="M 516.5,539.5 C 553.833,538.167 591.167,538.167 628.5,539.5C 628.5,541.833 628.5,544.167 628.5,546.5C 627.532,544.393 627.198,542.059 627.5,539.5C 590.5,539.5 553.5,539.5 516.5,539.5 Z"/></g>
<g><path style="opacity:1" fill="#000213" d="M 203.5,495.5 C 204.333,544.665 204.833,593.998 205,643.5C 206.031,646.539 207.865,649.039 210.5,651C 210.272,651.399 209.938,651.565 209.5,651.5C 206.74,649.905 204.907,647.572 204,644.5C 203.5,594.834 203.333,545.168 203.5,495.5 Z"/></g>
<g><path style="opacity:1" fill="#000111" d="M 271.5,549.5 C 271.5,549.833 271.5,550.167 271.5,550.5C 258.421,550.186 245.421,550.52 232.5,551.5C 245.124,549.519 258.124,548.852 271.5,549.5 Z"/></g>
<g><path style="opacity:1" fill="#53677a" d="M 271.5,550.5 C 271.5,550.167 271.5,549.833 271.5,549.5C 274.167,549.5 276.833,549.5 279.5,549.5C 279.827,559.015 279.494,568.348 278.5,577.5C 278.5,568.5 278.5,559.5 278.5,550.5C 276.167,550.5 273.833,550.5 271.5,550.5 Z"/></g>
<g><path style="opacity:1" fill="#01051c" d="M 271.5,550.5 C 273.833,550.5 276.167,550.5 278.5,550.5C 278.5,559.5 278.5,568.5 278.5,577.5C 274.833,577.5 271.167,577.5 267.5,577.5C 261.013,576.672 254.346,576.172 247.5,576C 257.512,575.453 267.512,575.62 277.5,576.5C 277.5,568.167 277.5,559.833 277.5,551.5C 275.265,551.795 273.265,551.461 271.5,550.5 Z"/></g>
<g><path style="opacity:1" fill="#576c81" d="M 254.5,604.5 C 254.5,604.167 254.5,603.833 254.5,603.5C 262.833,603.5 271.167,603.5 279.5,603.5C 279.827,613.015 279.494,622.348 278.5,631.5C 278.5,622.5 278.5,613.5 278.5,604.5C 270.5,604.5 262.5,604.5 254.5,604.5 Z"/></g>
<g><path style="opacity:1" fill="#000216" d="M 254.5,604.5 C 262.5,604.5 270.5,604.5 278.5,604.5C 278.5,613.5 278.5,622.5 278.5,631.5C 274.833,631.5 271.167,631.5 267.5,631.5C 270.625,630.521 273.958,630.187 277.5,630.5C 277.5,622.167 277.5,613.833 277.5,605.5C 269.648,605.825 261.982,605.492 254.5,604.5 Z"/></g>
<g><path style="opacity:1" fill="#0f2640" d="M 875.5,602.5 C 879.192,601.971 882.358,602.971 885,605.5C 886.042,610.634 883.876,613.301 878.5,613.5C 872.848,613.037 871.015,610.037 873,604.5C 873.995,603.934 874.828,603.267 875.5,602.5 Z"/></g>
<g><path style="opacity:1" fill="#0d2741" d="M 748.5,601.5 C 751.625,600.521 754.958,600.187 758.5,600.5C 758.169,608.86 758.502,617.193 759.5,625.5C 765.497,622.032 771.83,621.532 778.5,624C 781.49,626.153 783.49,628.987 784.5,632.5C 783.505,643.654 783.172,654.988 783.5,666.5C 780.833,666.5 778.167,666.5 775.5,666.5C 775.828,655.321 775.495,644.321 774.5,633.5C 768.621,628.324 763.288,628.991 758.5,635.5C 757.501,645.417 757.168,656.084 757.5,667.5C 754.833,667.5 752.167,667.5 749.5,667.5C 749.831,645.327 749.497,623.327 748.5,601.5 Z"/></g>
<g><path style="opacity:1" fill="#00010d" d="M 748.5,601.5 C 749.497,623.327 749.831,645.327 749.5,667.5C 752.167,667.5 754.833,667.5 757.5,667.5C 757.168,656.084 757.501,645.417 758.5,635.5C 758.5,646.5 758.5,657.5 758.5,668.5C 755.167,668.5 751.833,668.5 748.5,668.5C 748.5,646.167 748.5,623.833 748.5,601.5 Z"/></g>
<g><path style="opacity:1" fill="#0b182d" d="M 877.5,667.5 C 878.292,666.482 879.959,666.149 882.5,666.5C 882.5,652.833 882.5,639.167 882.5,625.5C 880.167,625.5 877.833,625.5 875.5,625.5C 875.829,639.677 875.496,653.677 874.5,667.5C 874.5,652.833 874.5,638.167 874.5,623.5C 877.833,623.5 881.167,623.5 884.5,623.5C 884.5,638.5 884.5,653.5 884.5,668.5C 882.05,668.702 879.717,668.369 877.5,667.5 Z"/></g>
<g><path style="opacity:1" fill="#0d253f" d="M 632.5,603.5 C 636.5,603.5 640.5,603.5 644.5,603.5C 651.966,624.898 658.632,646.565 664.5,668.5C 660.935,669.466 657.435,669.466 654,668.5C 652.34,662.858 650.84,657.191 649.5,651.5C 641.804,651.169 634.138,651.503 626.5,652.5C 624.696,657.746 623.196,663.079 622,668.5C 618.455,669.566 614.955,669.233 611.5,667.5C 617.378,645.756 624.378,624.423 632.5,603.5 Z"/></g>
<g><path style="opacity:1" fill="#edeff1" d="M 637.5,614.5 C 641.27,623.48 644.27,632.814 646.5,642.5C 640.794,642.829 635.128,642.495 629.5,641.5C 632.168,632.487 634.835,623.487 637.5,614.5 Z"/></g>
<g><path style="opacity:1" fill="#0e1729" d="M 681.5,624.5 C 680.67,635.326 680.17,646.326 680,657.5C 679.5,646.505 679.333,635.505 679.5,624.5C 677.167,624.5 674.833,624.5 672.5,624.5C 672.333,636.171 672.5,647.838 673,659.5C 673.608,661.154 674.108,662.821 674.5,664.5C 672.59,663.025 671.424,661.025 671,658.5C 670.5,646.838 670.333,635.171 670.5,623.5C 674.371,623.185 678.038,623.518 681.5,624.5 Z"/></g>
<g><path style="opacity:1" fill="#0c2641" d="M 729.5,623.5 C 733.298,624.483 737.298,624.817 741.5,624.5C 741.5,626.5 741.5,628.5 741.5,630.5C 737.167,630.5 732.833,630.5 728.5,630.5C 728.168,640.252 728.501,649.252 729.5,657.5C 732.61,661.145 736.11,661.478 740,658.5C 741.884,661.178 742.384,664.011 741.5,667C 733.936,669.771 727.102,668.604 721,663.5C 720.333,661.5 719.667,659.5 719,657.5C 718.5,648.84 718.334,640.173 718.5,631.5C 716.833,631.5 715.167,631.5 713.5,631.5C 713.5,629.167 713.5,626.833 713.5,624.5C 714.93,624.579 716.264,624.246 717.5,623.5C 718.329,618.533 718.829,613.533 719,608.5C 722.428,607.604 725.928,606.938 729.5,606.5C 729.5,612.167 729.5,617.833 729.5,623.5 Z"/></g>
<g><path style="opacity:1" fill="#0f2640" d="M 433.5,603.5 C 442.794,602.072 450.627,604.738 457,611.5C 458.411,613.65 459.245,615.984 459.5,618.5C 456.201,619.376 452.868,619.543 449.5,619C 444.161,611.663 437.994,610.83 431,616.5C 429.432,621.579 430.932,625.413 435.5,628C 443.912,630.122 451.412,633.956 458,639.5C 463.633,662.871 454.467,672.371 430.5,668C 423.639,664.981 419.639,659.814 418.5,652.5C 422.119,651.756 425.785,651.423 429.5,651.5C 431.018,657.01 434.685,660.01 440.5,660.5C 449.161,659.099 451.994,654.099 449,645.5C 448.167,644.667 447.333,643.833 446.5,643C 439.193,640.754 432.193,637.754 425.5,634C 419.814,627.146 418.981,619.646 423,611.5C 425.94,607.963 429.44,605.297 433.5,603.5 Z"/></g>
<g><path style="opacity:1" fill="#070b18" d="M 594.5,629.5 C 593.521,628.235 592.521,626.901 591.5,625.5C 590.311,624.571 588.978,624.238 587.5,624.5C 587.5,638.5 587.5,652.5 587.5,666.5C 590.167,666.5 592.833,666.5 595.5,666.5C 595.334,657.827 595.5,649.16 596,640.5C 596.333,639.833 596.667,639.167 597,638.5C 597.399,638.728 597.565,639.062 597.5,639.5C 596.551,649.114 596.218,658.781 596.5,668.5C 593.167,668.5 589.833,668.5 586.5,668.5C 586.5,653.5 586.5,638.5 586.5,623.5C 591.787,622.138 594.454,624.138 594.5,629.5 Z"/></g>
<g><path style="opacity:1" fill="#010314" d="M 729.5,623.5 C 733.833,623.5 738.167,623.5 742.5,623.5C 742.5,626.167 742.5,628.833 742.5,631.5C 738.167,631.5 733.833,631.5 729.5,631.5C 729.5,640.167 729.5,648.833 729.5,657.5C 728.501,649.252 728.168,640.252 728.5,630.5C 732.833,630.5 737.167,630.5 741.5,630.5C 741.5,628.5 741.5,626.5 741.5,624.5C 737.298,624.817 733.298,624.483 729.5,623.5 Z"/></g>
<g><path style="opacity:1" fill="#0e253f" d="M 899.5,607.5 C 901.833,607.5 904.167,607.5 906.5,607.5C 906.5,612.833 906.5,618.167 906.5,623.5C 910.5,623.5 914.5,623.5 918.5,623.5C 918.5,626.5 918.5,629.5 918.5,632.5C 914.5,632.5 910.5,632.5 906.5,632.5C 906.334,641.173 906.5,649.84 907,658.5C 907.5,659 908,659.5 908.5,660C 911.572,660.456 914.572,660.456 917.5,660C 921.039,666.405 919.039,669.572 911.5,669.5C 903.933,669.804 898.766,666.471 896,659.5C 895.5,650.173 895.334,640.839 895.5,631.5C 893.833,631.5 892.167,631.5 890.5,631.5C 890.5,629.167 890.5,626.833 890.5,624.5C 892.144,624.714 893.644,624.38 895,623.5C 895.499,618.511 895.666,613.511 895.5,608.5C 897.099,608.768 898.432,608.434 899.5,607.5 Z"/></g>
<g><path style="opacity:1" fill="#0d2844" d="M 531.5,632.5 C 530.505,643.988 530.172,655.655 530.5,667.5C 527.833,667.5 525.167,667.5 522.5,667.5C 522.828,655.988 522.495,644.654 521.5,633.5C 515.92,629.363 510.587,629.696 505.5,634.5C 504.501,644.417 504.168,655.084 504.5,666.5C 501.833,666.5 499.167,666.5 496.5,666.5C 496.667,655.495 496.5,644.495 496,633.5C 495.009,630.253 493.175,629.253 490.5,630.5C 485.623,629.775 481.956,631.442 479.5,635.5C 478.506,645.653 478.172,655.986 478.5,666.5C 475.833,666.5 473.167,666.5 470.5,666.5C 470.5,652.5 470.5,638.5 470.5,624.5C 473.044,624.104 475.211,624.771 477,626.5C 477.399,626.272 477.565,625.938 477.5,625.5C 478.117,625.611 478.617,625.944 479,626.5C 485.308,622.179 492.141,621.346 499.5,624C 500.618,625.074 501.618,626.24 502.5,627.5C 510.418,621.742 518.752,621.075 527.5,625.5C 529.582,627.422 530.916,629.755 531.5,632.5 Z"/></g>
<g><path style="opacity:1" fill="#0e2944" d="M 597.5,639.5 C 597.565,639.062 597.399,638.728 597,638.5C 596.667,639.167 596.333,639.833 596,640.5C 595.5,649.16 595.334,657.827 595.5,666.5C 592.833,666.5 590.167,666.5 587.5,666.5C 587.5,652.5 587.5,638.5 587.5,624.5C 588.978,624.238 590.311,624.571 591.5,625.5C 592.521,626.901 593.521,628.235 594.5,629.5C 595.117,629.611 595.617,629.944 596,630.5C 599.376,623.475 604.71,621.141 612,623.5C 612.728,626.23 612.562,628.897 611.5,631.5C 604.911,631.119 600.244,633.786 597.5,639.5 Z"/></g>
<g><path style="opacity:1" fill="#0e2945" d="M 855.5,635.5 C 853.864,636.749 852.697,638.416 852,640.5C 851.5,649.494 851.334,658.494 851.5,667.5C 848.833,667.5 846.167,667.5 843.5,667.5C 843.5,653.167 843.5,638.833 843.5,624.5C 844.978,624.238 846.311,624.571 847.5,625.5C 848.035,627.261 849.035,628.594 850.5,629.5C 853.186,627.054 856.186,624.887 859.5,623C 867.317,620.827 870.15,623.661 868,631.5C 863.464,631.83 859.297,633.163 855.5,635.5 Z"/></g>
<g><path style="opacity:1" fill="#0e2640" d="M 551.5,621.5 C 558.061,620.919 564.395,621.752 570.5,624C 573.467,626.1 575.3,628.934 576,632.5C 576.334,644.181 576.834,655.847 577.5,667.5C 575.453,667.511 573.453,667.844 571.5,668.5C 569.964,667.751 568.631,666.751 567.5,665.5C 566.3,666.531 564.966,667.365 563.5,668C 558.5,668.667 553.5,668.667 548.5,668C 539.774,662.948 537.607,655.782 542,646.5C 544.559,643.469 547.726,641.302 551.5,640C 556.481,639.252 561.481,638.752 566.5,638.5C 566.244,631.421 562.577,628.588 555.5,630C 551.4,631.216 547.4,632.716 543.5,634.5C 542.034,631.979 541.534,629.312 542,626.5C 545.181,624.662 548.347,622.995 551.5,621.5 Z"/></g>
<g><path style="opacity:1" fill="#1b2230" d="M 490.5,630.5 C 493.175,629.253 495.009,630.253 496,633.5C 496.5,644.495 496.667,655.495 496.5,666.5C 499.167,666.5 501.833,666.5 504.5,666.5C 504.168,655.084 504.501,644.417 505.5,634.5C 505.5,645.833 505.5,657.167 505.5,668.5C 501.833,668.5 498.167,668.5 494.5,668.5C 494.667,656.495 494.5,644.495 494,632.5C 493.184,631.177 492.017,630.511 490.5,630.5 Z"/></g>
<g><path style="opacity:1" fill="#0d2540" d="M 807.5,622.5 C 820.698,620.15 829.531,625.15 834,637.5C 837.354,663.489 826.52,672.989 801.5,666C 793.674,658.854 790.841,650.02 793,639.5C 794.472,630.868 799.305,625.202 807.5,622.5 Z"/></g>
<g><path style="opacity:1" fill="#f4f5f6" d="M 811.5,630.5 C 818.13,630.22 822.296,633.22 824,639.5C 825.95,647.455 824.117,654.289 818.5,660C 809.897,662.287 804.73,659.12 803,650.5C 800.94,641.454 803.774,634.787 811.5,630.5 Z"/></g>
<g><path style="opacity:1" fill="#0f2b47" d="M 877.5,667.5 C 876.5,668.833 875.5,668.833 874.5,667.5C 875.496,653.677 875.829,639.677 875.5,625.5C 877.833,625.5 880.167,625.5 882.5,625.5C 882.5,639.167 882.5,652.833 882.5,666.5C 879.959,666.149 878.292,666.482 877.5,667.5 Z"/></g>
<g><path style="opacity:1" fill="#131825" d="M 850.5,629.5 C 849.035,628.594 848.035,627.261 847.5,625.5C 846.311,624.571 844.978,624.238 843.5,624.5C 843.5,638.833 843.5,653.167 843.5,667.5C 846.167,667.5 848.833,667.5 851.5,667.5C 851.334,658.494 851.5,649.494 852,640.5C 852.697,638.416 853.864,636.749 855.5,635.5C 855.291,636.922 854.791,638.255 854,639.5C 853.5,649.161 853.334,658.828 853.5,668.5C 849.833,668.5 846.167,668.5 842.5,668.5C 842.5,653.5 842.5,638.5 842.5,623.5C 847.367,622.665 850.034,624.665 850.5,629.5 Z"/></g>
<g><path style="opacity:1" fill="#f6f7f7" d="M 565.5,646.5 C 567.86,658.967 563.026,662.967 551,658.5C 549.817,654.726 550.651,651.559 553.5,649C 557.609,648.056 561.609,647.222 565.5,646.5 Z"/></g>
<g><path style="opacity:1" fill="#040714" d="M 784.5,632.5 C 784.5,644.5 784.5,656.5 784.5,668.5C 781.167,668.5 777.833,668.5 774.5,668.5C 774.5,656.833 774.5,645.167 774.5,633.5C 775.495,644.321 775.828,655.321 775.5,666.5C 778.167,666.5 780.833,666.5 783.5,666.5C 783.172,654.988 783.505,643.654 784.5,632.5 Z"/></g>
<g><path style="opacity:1" fill="#000110" d="M 531.5,632.5 C 531.5,644.5 531.5,656.5 531.5,668.5C 528.167,668.5 524.833,668.5 521.5,668.5C 521.5,656.833 521.5,645.167 521.5,633.5C 522.495,644.654 522.828,655.988 522.5,667.5C 525.167,667.5 527.833,667.5 530.5,667.5C 530.172,655.655 530.505,643.988 531.5,632.5 Z"/></g>
<g><path style="opacity:1" fill="#081021" d="M 477.5,625.5 C 477.565,625.938 477.399,626.272 477,626.5C 475.211,624.771 473.044,624.104 470.5,624.5C 470.5,638.5 470.5,652.5 470.5,666.5C 473.167,666.5 475.833,666.5 478.5,666.5C 478.172,655.986 478.506,645.653 479.5,635.5C 479.5,646.5 479.5,657.5 479.5,668.5C 476.167,668.5 472.833,668.5 469.5,668.5C 469.5,653.5 469.5,638.5 469.5,623.5C 471.857,623.337 474.19,623.503 476.5,624C 477.056,624.383 477.389,624.883 477.5,625.5 Z"/></g>
<g><path style="opacity:1" fill="#020415" d="M 699.5,665.5 C 701.379,666.341 703.379,666.675 705.5,666.5C 705.5,652.5 705.5,638.5 705.5,624.5C 702.833,624.5 700.167,624.5 697.5,624.5C 697.666,634.839 697.5,645.172 697,655.5C 696.722,656.416 696.222,657.082 695.5,657.5C 696.434,646.205 696.768,634.871 696.5,623.5C 699.833,623.5 703.167,623.5 706.5,623.5C 706.667,638.504 706.5,653.504 706,668.5C 703.37,668.141 701.203,667.141 699.5,665.5 Z"/></g>
<g><path style="opacity:1" fill="#0e2640" d="M 920.5,623.5 C 924.167,623.5 927.833,623.5 931.5,623.5C 934.356,634.238 937.523,644.904 941,655.5C 944.011,645.126 947.177,634.793 950.5,624.5C 953.768,623.513 957.102,623.18 960.5,623.5C 955.323,640.875 949.823,658.208 944,675.5C 940.548,685.982 933.548,689.648 923,686.5C 922.503,683.153 923.337,680.153 925.5,677.5C 927.768,678.544 930.101,678.711 932.5,678C 934.615,674.989 935.949,671.655 936.5,668C 930.668,653.336 925.334,638.503 920.5,623.5 Z"/></g>
<g><path style="opacity:1" fill="#112b47" d="M 681.5,624.5 C 681.333,635.838 681.5,647.172 682,658.5C 686.754,661.36 691.254,661.027 695.5,657.5C 696.222,657.082 696.722,656.416 697,655.5C 697.5,645.172 697.666,634.839 697.5,624.5C 700.167,624.5 702.833,624.5 705.5,624.5C 705.5,638.5 705.5,652.5 705.5,666.5C 703.379,666.675 701.379,666.341 699.5,665.5C 698.85,665.196 698.183,664.863 697.5,664.5C 694.237,667.887 690.237,669.22 685.5,668.5C 680.914,669.278 677.247,667.944 674.5,664.5C 674.108,662.821 673.608,661.154 673,659.5C 672.5,647.838 672.333,636.171 672.5,624.5C 674.833,624.5 677.167,624.5 679.5,624.5C 679.333,635.505 679.5,646.505 680,657.5C 680.17,646.326 680.67,635.326 681.5,624.5 Z"/></g>
</svg>
