<?xml version="1.0" encoding="UTF-8"?>
<svg width="128" height="128" viewBox="0 0 128 128" xmlns="http://www.w3.org/2000/svg">
  <style>
    @font-face {
      font-family: 'Source Han Sans CN';
      src: local('Source Han Sans CN');
    }
    .text {
      font-family: 'Source Han Sans CN', sans-serif;
      font-size: 36px;
      font-weight: bold;
      fill: #002140;
    }
  </style>
  <rect width="128" height="128" fill="white"/>
  <text x="64" y="72" text-anchor="middle" class="text">智权控</text>
</svg>
<style type="text/css">
	.st0{fill-rule:evenodd;clip-rule:evenodd;fill:#0068B7;}
	.st1{fill-rule:evenodd;clip-rule:evenodd;fill:#00A0E9;}
</style>
<g>
	<path class="st0" d="M8002.5,2537.3H7601l-426.2-467.5l439.8-650.8h331L7533,2029.5l145.9,157.8L8002.5,2537.3L8002.5,2537.3z
		 M7145.8,2112.6v424.6h-287L7145.8,2112.6z"/>
	<path class="st0" d="M6643.3,2537.3h-482.9c-102.4,0-183.6-7.2-243.2-21.3c-59.4-14.3-116.7-40.4-171.8-78.3
		c-36.1-24.6-66.3-51-90.9-79.1c-24.6-28.2-45.6-61.4-63.2-99.8c-34.1-74-50.9-161-50.9-261.4c0-196.4,50.7-341.8,152.3-436.5
		c101.6-94.5,260.1-141.8,475.4-141.8h475.2v227.3H6174c-90.1,0-157.7,17.9-203,54c-45.3,35.9-71.4,88.1-78.6,156.4l750.9,1.5v225.8
		h-752.2c0,38.9,5.6,72.2,17.1,99.8c10,28.4,25.4,51.5,45.8,68.9c44,38.2,117.3,57.1,219.9,57.1h469.3L6643.3,2537.3L6643.3,2537.3z
		"/>
	<polygon class="st0" points="5537,1646.3 5119.2,1646.3 5119.2,2537.3 4793.5,2537.3 4792.7,1646.3 4378.5,1646.3 4378.5,1418.9 
		5537,1418.9 	"/>
	<path class="st0" d="M4509.6,2537.3h-316.4v-451.6h-447v451.6h-316.4V1418.9h316.4v437.8h278.4h168.6h316.4L4509.6,2537.3
		L4509.6,2537.3z M4193.2,1646.3h316.4v-227.3h-316.4V1646.3z"/>
	<path class="st0" d="M3279.2,2537.3h-482.3c-102.4,0-183.3-7.2-243-21.3c-59.4-14.3-116.8-40.4-171.5-78.3
		c-36.1-24.6-66.3-51-90.9-79.1c-24.3-28.2-45.3-61.4-63-99.8c-34.1-74-50.9-161-50.9-261.4c0-196.4,50.7-341.8,152.3-436.5
		c101.4-94.5,259.6-141.8,474.7-141.8h474.7v224.3h-468.8c-53.5,0-98,5.9-133.6,17.9c-35.8,14.1-65.8,34.8-89.1,62.2
		c-23.6,27.4-41,64.5-52,111.4c-11.5,48.4-17.2,105.7-17.2,172c0,114.4,21.5,193.3,64.5,237.3c42,43.8,117.8,65.8,227.3,65.8h468.8
		L3279.2,2537.3L3279.2,2537.3z"/>
	<polygon class="st0" points="2002.6,2537.3 1695.4,2537.3 1178.8,1774 1189.2,2537.3 868.2,2537.3 868.2,1418.9 1246.8,1418.9 	"/>
	<rect x="317" y="1418.9" class="st0" width="330.3" height="1118.3"/>
	<polygon class="st1" points="1515.9,1418.9 2002.6,2139.1 2002.6,1418.9 	"/>
	<polygon class="st1" points="7316.1,1418.9 6829.4,2139.1 6829.4,1418.9 	"/>
</g>
</svg>
